<?xml version="1.0" encoding="utf-8"?>
<!-- Generator: Adobe Illustrator 27.5.0, SVG Export Plug-In . SVG Version: 6.00 Build 0)  -->
<svg version="1.1" xmlns="http://www.w3.org/2000/svg" xmlns:xlink="http://www.w3.org/1999/xlink" x="0px" y="0px"
	 viewBox="0 0 750 500" style="enable-background:new 0 0 750 500;" xml:space="preserve">
<g id="BACKGROUND">
	<g>
		<polyline style="fill:#E6E9FC;" points="750,0 0,0 0,500 750,500 750,0 		"/>
	</g>
</g>
<g id="OBJECTS">
	<g>
		<path style="fill:#FFFFFF;" d="M141.086,429.021c0,0,0-14.802-6.973-36.136c-6.973-21.334-42.914-25.626-39.159-56.202
			c20.116,7.242,35.94,37.086,39.427,46.169c-11.801-45.901-3.487-78.354-3.487-78.354s16.093,34.331,10.192,78.586
			c21.189-53.106,37.885-60.347,37.885-60.347s-4.359,32.185-15.892,49.082c-11.533,16.897-20.384,16.629-20.384,16.629
			s0.268,27.773,5.364,40.573H141.086z"/>
		<path style="fill:#FFFFFF;" d="M603.775,429.021c0,0,0-14.802-6.973-36.136c-6.974-21.334-42.914-25.626-39.159-56.202
			c20.116,7.242,35.94,37.086,39.427,46.169c-11.801-45.901-3.487-78.354-3.487-78.354s16.093,34.331,10.192,78.586
			c21.189-53.106,37.885-60.347,37.885-60.347s-4.359,32.185-15.892,49.082c-11.533,16.897-20.384,16.629-20.384,16.629
			s0.268,27.773,5.364,40.573H603.775z"/>
		<g>
			<g>
				<g>
					<polyline style="fill:#F0C9CF;" points="248.851,397.842 251.019,414.471 246.191,422.785 234.524,418.226 230.881,401.999 
											"/>
					<path style="fill:#1F2251;" d="M275.932,426.127l-25.45-14.74l-4.828,6.839h-11.131l-1.207,10.326h41.964
						C276.61,428.552,277.083,426.793,275.932,426.127z"/>
					<polyline style="fill:#F0C9CF;" points="158.325,397.842 155.106,414.471 159.934,422.785 171.601,418.226 176.295,401.999 
											"/>
					<path style="fill:#F0C9CF;" d="M261.552,235.707l-19.066,25.086c-0.662,0.872-1.061,1.912-1.135,3.004l-1.628,22.333
						l-6.839-46.936l9.654-16.156l-0.967-3.215l-3.645-12.102l18.804-7.101l1.145,3.383l5.967,17.701
						C265.449,226.462,264.587,231.704,261.552,235.707z"/>
					<polygon style="fill:#D683A7;" points="257.875,204.003 241.571,219.823 237.926,207.721 256.73,200.62 					"/>
					<polygon style="fill:#99A3CA;" points="252.328,402.136 229.27,405.886 211.149,328.055 206.653,308.747 206.537,308.264 
						177.145,407.85 154.034,401.505 175.516,263.135 177.145,252.651 235.699,251.779 236.329,257.494 					"/>
					<polygon style="fill:#7988B8;" points="236.329,257.494 175.516,263.135 176.388,257.494 177.145,252.651 235.699,251.779 
						236.224,256.517 					"/>
					<path style="fill:#1F2251;" d="M236.224,256.517c-12.711,1.838-50.833,1.166-59.836,0.977l0.756-4.843l58.554-0.872
						L236.224,256.517z"/>
					<path style="fill:#647BF4;" d="M259.713,199.496l-13.551,8.068l-1.744,1.03l-4.086,2.437v0.105l-0.084,1.744l-0.62,14.213
						l-0.084,1.744l-0.62,14.213l-0.074,1.744l-0.2,4.465c0,0,2.416,2.679,1.744,4.958c-0.168,0.557-4.191,0.988-10.19,1.282
						c-0.567,0.031-1.145,0.052-1.744,0.084c-4.149,0.168-9.066,0.284-14.213,0.336c-0.578,0-1.156,0.01-1.744,0.01
						c-4.727,0.032-9.602,0-14.213-0.084c-0.588-0.011-1.166-0.032-1.744-0.042c-5.4-0.126-10.358-0.326-14.213-0.641
						c-0.609-0.042-1.198-0.095-1.744-0.147c-3.866-0.368-6.229-0.851-6.177-1.471c0.273-3.214,2.279-5.368,2.279-5.368l0.011-3.383
						l0.01-1.744l0.053-14.213l0.01-1.744l0.053-14.213v-0.903l-1.439-0.84l-9.024-5.252l-1.744-1.019l-11.261-6.566l0.62-1.376
						l0.788-1.744l6.387-14.224l0.788-1.733l2.679-5.967l0.557-1.24c0.368-0.809,0.756-1.607,1.187-2.374
						c0.903-1.649,1.943-3.193,3.099-4.643c0.473-0.599,0.966-1.187,1.481-1.744c2.731-3.004,6.009-5.473,9.643-7.28
						c0.567-0.294,1.156-0.557,1.744-0.809c2.511-1.082,5.168-1.849,7.931-2.279l4.181-0.651l2.101-0.326l1.744-0.273l0.063-0.01
						l14.15,1.176l1.744,0.147l4.286,0.357l3.614,0.504c0.221,0.032,0.452,0.063,0.672,0.105c1.933,0.305,3.824,0.788,5.641,1.418
						c0.588,0.2,1.166,0.42,1.744,0.662c4.076,1.67,7.774,4.139,10.862,7.259c0.557,0.557,1.103,1.145,1.618,1.744
						c0.609,0.704,1.187,1.439,1.733,2.195c0.63,0.861,1.208,1.765,1.744,2.689c0.588,0.998,1.124,2.038,1.607,3.109l2.805,6.229
						l0.788,1.733l6.408,14.224l0.788,1.744L259.713,199.496z"/>
					<g>
						<path style="opacity:0.25;fill:#FFFFFF;" d="M257.77,195.179h-11.608v-14.224h5.2l-0.788-1.733h-4.412v-9.339
							c-0.536-0.924-1.114-1.828-1.744-2.689v12.028h-14.213v-14.224h12.48c-0.515-0.599-1.061-1.187-1.618-1.744h-10.862v-7.259
							c-0.578-0.242-1.156-0.462-1.744-0.662v7.921h-14.213v-10.305l-1.744-0.147v10.452h-14.213v-11.618l-1.744,0.273v11.345
							h-14.213v-8.089c-0.588,0.252-1.177,0.515-1.744,0.809v7.28h-9.643c-0.515,0.557-1.008,1.145-1.481,1.744h11.125v14.224
							h-14.224v-9.581c-0.431,0.767-0.82,1.565-1.187,2.374l-0.557,1.24v5.967h-2.679l-0.788,1.733h3.467v14.224h-9.854
							l-0.788,1.744h10.641v7.942l1.744,1.019v-8.961h14.224v14.213h-5.2l1.439,0.84v0.903h3.761v14.213h-3.813l-0.01,1.744h3.824
							v14.213h-3.876l-0.01,1.744h3.887v10.221c0.546,0.053,1.135,0.105,1.744,0.147v-10.368h14.213v11.009
							c0.578,0.01,1.156,0.031,1.744,0.042v-11.051h14.213v11.135c0.588,0,1.166-0.01,1.744-0.01v-11.125h14.213v10.788
							c0.599-0.032,1.177-0.053,1.744-0.084v-10.704h8.646l0.074-1.744h-8.719v-14.213h9.339l0.084-1.744h-9.423v-14.213h10.043
							l0.084-1.744h-10.127v-14.213h14.213v11.671l1.744-1.03v-10.641h12.396L257.77,195.179z M180.59,195.179h-14.224v-14.224
							h14.224V195.179z M196.547,243.049h-14.213v-14.213h14.213V243.049z M196.547,227.093h-14.213v-14.213h14.213V227.093z
							 M196.547,211.136h-14.213v-14.213h14.213V211.136z M196.547,195.179h-14.213v-14.224h14.213V195.179z M196.547,179.222
							h-14.213v-14.224h14.213V179.222z M212.504,243.049h-14.213v-14.213h14.213V243.049z M212.504,227.093h-14.213v-14.213h14.213
							V227.093z M212.504,211.136h-14.213v-14.213h14.213V211.136z M212.504,195.179h-14.213v-14.224h14.213V195.179z
							 M212.504,179.222h-14.213v-14.224h14.213V179.222z M228.461,243.049h-14.213v-14.213h14.213V243.049z M228.461,227.093
							h-14.213v-14.213h14.213V227.093z M228.461,211.136h-14.213v-14.213h14.213V211.136z M228.461,195.179h-14.213v-14.224h14.213
							V195.179z M228.461,179.222h-14.213v-14.224h14.213V179.222z M244.418,195.179h-14.213v-14.224h14.213V195.179z"/>
					</g>
					<path style="fill:#FFFFFF;" d="M222.82,153.915c-1.355,5.725-4.559,11.314-11.923,11.251
						c-11.965-0.105-15.505-9.223-16.451-12.932l3.908-0.609l20.18,1.681l3.614,0.504
						C222.368,153.842,222.599,153.874,222.82,153.915z"/>
					
						<line style="fill:none;stroke:#1F2251;stroke-width:0.5252;stroke-linecap:round;stroke-linejoin:round;stroke-miterlimit:10;" x1="237.93" y1="207.717" x2="236.396" y2="184.533"/>
					<path style="fill:#1F2251;" d="M227.925,114.921c0,0,2.5,2.731,0.536,7.469c-1.964,4.738-2.952,8.761-3.13,13.236
						c-0.147,3.698-16.241,5.872-21.766,6.503c-1.145,0.137-1.838,0.2-1.838,0.2l-4.38-8.604c-0.578-1.523-1.975-4.402-3.194-7.732
						c-1.996-5.399-3.53-11.976-0.378-15.852c5.095-6.261,10.768-3.488,19.466-7.774c8.698-4.296,13.079-8.288,18.079-2.416
						C236.329,105.824,227.925,114.921,227.925,114.921z"/>
					<path style="fill:#161937;" d="M205.035,140.27l-1.471,1.859c-1.145,0.137-1.838,0.2-1.838,0.2l-4.38-8.604
						c-0.578-1.523-1.975-4.402-3.194-7.732c4.318-1.765,7.311-6.282,7.311-6.282L205.035,140.27z"/>
					<path style="fill:#F0C9CF;" d="M218.534,153.306c0,0,0.41,8.509-8.803,8.173c-9.202-0.336-11.377-9.854-11.377-9.854
						l2.553-0.536c0,0,0.935-10.127,0-17.365l17.638,8.982c-0.168,0.158-0.326,0.347-0.473,0.546
						c-2.048,2.815-1.817,9.244-1.817,9.244L218.534,153.306z"/>
					<path style="fill:#D683A7;" d="M216.255,152.497c-11.35,0.335-14.524-12.942-14.524-12.942l16.342,3.698
						C216.023,146.068,216.255,152.497,216.255,152.497z"/>
					<path style="fill:#F0C9CF;" d="M226.507,134.481c0.031,1.649-0.053,3.236-0.273,4.717c-0.924,6.114-4.181,10.442-12.06,9.812
						c-11.629-0.935-13.74-12.364-13.74-12.364s-2.994,2.5-5.904-0.357c-2.899-2.857-1.429-7.196,1.387-7.69
						c1.523-0.263,3.015,1.282,4.076,2.763c0.452,0.651,1.471,0.315,1.471-0.473v-11.177c0,0,14.161,0.588,22.565-2.5
						c0.052-0.021,0.094-0.032,0.147-0.053c1.345,1.24,1.838,2.889,1.986,4.696c0.2,2.521-0.252,5.336,0.021,7.71
						C226.371,131.225,226.497,132.885,226.507,134.481z"/>
					<path style="fill:none;stroke:#C85E8B;stroke-width:0.5252;stroke-linecap:round;stroke-miterlimit:9;" d="M218.072,136.739
						l1.118-0.657c0.751-0.442,1.056-1.374,0.71-2.174l-1.828-4.232"/>
					<path d="M214.038,132.683c0,0.555-0.357,1.006-0.798,1.006c-0.441,0-0.798-0.45-0.798-1.006c0-0.555,0.357-1.006,0.798-1.006
						C213.681,131.677,214.038,132.127,214.038,132.683z"/>
					<ellipse cx="222.829" cy="132.202" rx="0.798" ry="1.006"/>
					<path style="fill:none;stroke:#C85E8B;stroke-width:0.5252;stroke-linecap:round;stroke-miterlimit:9;" d="M194.969,131.677
						c1.71-0.972,3.786,0.671,3.385,3.118"/>
					<path style="fill:none;stroke:#C85E8B;stroke-width:0.5252;stroke-linecap:round;stroke-miterlimit:9;" d="M214.247,141.299
						c0,0,2.235,2.28,5.23,0.492"/>
					
						<path style="fill:none;stroke:#1F2251;stroke-width:0.7879;stroke-linecap:round;stroke-linejoin:round;stroke-miterlimit:10;" d="
						M209.333,128.316c0,0,1.661-2.511,4.977-1.401"/>
					
						<path style="fill:none;stroke:#1F2251;stroke-width:0.7879;stroke-linecap:round;stroke-linejoin:round;stroke-miterlimit:10;" d="
						M225.331,127.049c0,0-1.982-2.189-5.167-0.181"/>
					<circle style="fill:#EAB7C0;" cx="209.735" cy="136.739" r="2.816"/>
					<path style="fill:#EAB7C0;" d="M226.507,134.481c0.031,1.649-0.053,3.236-0.273,4.717c-0.41,0.221-0.882,0.357-1.387,0.357
						c-1.555,0-2.815-1.261-2.815-2.815c0-1.555,1.261-2.815,2.815-2.815C225.467,133.925,226.045,134.124,226.507,134.481z"/>
					<g>
						<path style="fill:#2A3551;" d="M232.512,229.31h-14.494c-1.738,0-2.86-1.409-2.507-3.146l6.145-30.263
							c0.353-1.738,2.047-3.146,3.785-3.146h16.573c1.738,0,2.86,1.409,2.507,3.146l-8.223,30.263
							C235.944,227.901,234.249,229.31,232.512,229.31z"/>
						<path style="fill:#364380;" d="M234.59,230.6h-14.494c-1.738,0-2.86-1.409-2.507-3.146l6.144-30.263
							c0.353-1.738,2.047-3.146,3.785-3.146h14.494c1.738,0,2.86,1.408,2.507,3.146l-6.145,30.263
							C238.023,229.191,236.328,230.6,234.59,230.6z"/>
					</g>
					<path style="fill:#F0C9CF;" d="M231.056,224.487c0,2.994-3.582,5.631-3.582,5.631s0.851,4.076-5.893,5.452
						c-6.755,1.387-13.593-4.465-13.593-4.465l-43.564,9.192c-1.134,0.242-2.269,0.357-3.393,0.357
						c-4.885,0-9.591-2.185-12.742-6.072c-3.95-4.864-4.79-11.555-2.154-17.239l6.292-13.593l2.185-4.727l22.218,12.952
						l-1.586,2.731l-2.301,3.971l35.265-1.25c0,0,3.624-2.511,5.946-5.589c2.332-3.088,3.172-3.803,5.011-2.637
						c1.828,1.156-0.179,6.439-1.744,8.446c5.631,3.13,12.385,0.714,15.106,1.114C235.258,219.172,235.3,222.386,231.056,224.487z"
						/>
					<path style="fill:none;stroke:#C85E8B;stroke-width:0.5252;stroke-linecap:round;stroke-miterlimit:9;" d="M231.055,224.489
						c-3.464,1.498-11.98,0.157-14.394-1.453"/>
					<path style="fill:none;stroke:#C85E8B;stroke-width:0.5252;stroke-linecap:round;stroke-miterlimit:9;" d="M227.478,230.121
						c-4.783,0.939-10.147,0.626-12.874-2.101"/>
					<path style="fill:#445EC7;" d="M225.932,207.234L225.932,207.234c-0.901,0-1.488-0.73-1.311-1.632l1.156-5.89
						c0.177-0.901,1.051-1.632,1.952-1.632l0,0c0.901,0,1.488,0.73,1.311,1.632l-1.156,5.89
						C227.707,206.503,226.833,207.234,225.932,207.234z"/>
					
						<line style="fill:none;stroke:#C85E8B;stroke-width:0.5252;stroke-linecap:round;stroke-miterlimit:9;" x1="172.942" y1="218.678" x2="161.23" y2="218.678"/>
					
						<line style="fill:none;stroke:#C85E8B;stroke-width:0.5252;stroke-linecap:round;stroke-miterlimit:9;" x1="242.543" y1="223.036" x2="248.763" y2="215.459"/>
					
						<line style="fill:none;stroke:#1F2251;stroke-width:0.5252;stroke-linecap:round;stroke-linejoin:round;stroke-miterlimit:10;" x1="176.831" y1="211.972" x2="189.524" y2="187.565"/>
					<polygon style="fill:#D683A7;" points="176.83,211.976 175.243,214.707 152.427,203.751 154.612,199.023 					"/>
					
						<line style="fill:none;stroke:#1F2251;stroke-width:0.5252;stroke-linecap:round;stroke-linejoin:round;stroke-miterlimit:10;" x1="206.536" y1="308.26" x2="214.604" y2="281.975"/>
					<path style="fill:#1F2251;" d="M130.193,426.127l25.45-14.74l4.828,6.839h11.131l1.207,10.326h-41.964
						C129.515,428.552,129.043,426.793,130.193,426.127z"/>
					<g>
						<path style="fill:#99A3CA;" d="M176.672,408.531l-22.401-4.612c-1.521-0.313-2.5-1.8-2.187-3.32l0.732-3.556
							c0.313-1.521,1.8-2.5,3.32-2.187l22.401,4.612c1.521,0.313,2.5,1.8,2.187,3.321l-0.732,3.556
							C179.68,407.865,178.193,408.844,176.672,408.531z"/>
						
							<line style="fill:none;stroke:#1F2251;stroke-width:0.5252;stroke-linecap:round;stroke-linejoin:round;stroke-miterlimit:10;" x1="155.695" y1="394.808" x2="178.971" y2="399.601"/>
					</g>
					<g>
						<path style="fill:#99A3CA;" d="M252.659,404.239l-22.488,4.166c-1.527,0.283-2.994-0.725-3.276-2.252l-0.661-3.57
							c-0.283-1.527,0.726-2.993,2.252-3.276l22.488-4.166c1.527-0.283,2.994,0.726,3.276,2.252l0.661,3.57
							C255.194,402.489,254.185,403.956,252.659,404.239z"/>
						
							<line style="fill:none;stroke:#1F2251;stroke-width:0.5252;stroke-linecap:round;stroke-linejoin:round;stroke-miterlimit:10;" x1="228.057" y1="399.429" x2="251.424" y2="395.1"/>
					</g>
					
						<line style="fill:none;stroke:#1F2251;stroke-width:0.5252;stroke-linecap:round;stroke-linejoin:round;stroke-miterlimit:10;" x1="183.178" y1="246.337" x2="234.227" y2="238.827"/>
					<polygon style="fill:#7988B8;" points="213.975,285.195 211.149,328.055 206.653,308.747 206.684,307.77 					"/>
				</g>
				<g>
					<path style="fill:#F0C9CF;" d="M411.637,156.927l-11.108,41.848c-1.771,6.673-8.726,10.543-15.33,8.532l-7.494-2.283
						l22.622-53.221L411.637,156.927z"/>
					<path style="fill:#D683A7;" d="M404.842,145.322c-0.894-1.118-7.957,2.637-9.656,3.039c-1.699,0.402-0.179,4.641,2.95,4.22
						c3.129-0.421,4.112-3.719,4.112-3.719L404.842,145.322z"/>
					<path style="fill:#2A3551;" d="M399.647,136.324l-0.214,27.371l2.95-0.626v-26.734c0-0.594-0.383-1.12-0.948-1.302l0,0
						C400.557,134.748,399.655,135.4,399.647,136.324z"/>
					<path style="fill:#F0C9CF;" d="M403.862,145.791c0,0-9.033,9.052-7.29,11.667c1.743,2.615,7.309-2.146,8.382-3.621
						c-0.134,3.017,3.723,5.854,6.035,5.498c3.487-0.536,4.895-4.09,3.822-5.699c-1.073-1.609-7.577-5.364-7.577-5.364
						S405.587,143.378,403.862,145.791z"/>
					<g>
						<polyline style="fill:#F0C9CF;" points="315.707,397.842 312.489,414.471 317.317,422.785 328.984,418.226 333.677,401.999 
													"/>
						<path style="fill:#1F2251;" d="M287.575,426.127l25.45-14.74l4.828,6.839h11.131l1.207,10.326h-41.964
							C286.898,428.552,286.425,426.793,287.575,426.127z"/>
					</g>
					<g>
						<polyline style="fill:#F0C9CF;" points="425.229,397.842 428.448,414.471 423.62,422.785 411.953,418.226 407.259,401.999 
													"/>
						<path style="fill:#1F2251;" d="M453.361,426.127l-25.45-14.74l-4.828,6.839h-11.131l-1.207,10.326h41.964
							C454.039,428.552,454.512,426.793,453.361,426.127z"/>
					</g>
					<polygon style="fill:#647BF4;" points="427.326,391.946 403.281,397.209 366.566,274.291 337.268,395.097 313.432,391.589 
						328.738,263.156 331.091,243.375 366.734,240.654 390.675,238.827 391.116,240.654 391.368,241.715 					"/>
					<polygon style="fill:#4257B2;" points="391.368,241.715 328.738,263.156 331.091,243.375 366.734,240.654 391.116,240.654 
											"/>
					<path style="fill:#EBAF65;" d="M392.975,237.86c0.21,1.544-0.862,2.973-2.416,3.204l-57.42,8.446
						c-1.954,0.284-3.687-1.271-3.614-3.246l1.649-45.035l1.208-32.796l8.772-19.15l1.817-3.96h20.138l2.195,0.294
						c0.546,0.074,1.092,0.158,1.628,0.263c8.688,1.67,16.125,7.301,20.096,15.274l12.406,24.981l-11.807,11.944L392.975,237.86z"/>
					<path style="fill:#EBAF65;" d="M339.736,163.401c-0.368,0.903-0.525,1.87-0.452,2.836l2.206,28.941l-1.849,1.082l-8.467,4.969
						l-10.61,6.219l-1.775,1.04l-3.362-28.825c-1.471-12.648,5.358-24.802,16.923-30.117l7.164-3.299l3.477-1.597l2.49,0.672
						l1.471,0.399l-2.847,6.965L339.736,163.401z"/>
					<g>
						<defs>
							<path id="SVGID_1_" d="M387.628,198.078l11.807-11.944l-12.406-24.981c-3.971-7.973-11.408-13.604-20.096-15.274
								c-0.536-0.105-1.082-0.189-1.628-0.263l-2.195-0.294h-17.627l-2.49-0.672l-3.477,1.597l-7.164,3.299
								c-11.566,5.315-18.394,17.47-16.923,30.117l3.362,28.825l12.385-7.259l-1.649,45.035c-0.074,1.975,1.66,3.53,3.614,3.246
								l57.42-8.446c1.555-0.231,2.626-1.66,2.416-3.204L387.628,198.078z"/>
						</defs>
						<clipPath id="SVGID_00000148622155058898168160000016112502689444606627_">
							<use xlink:href="#SVGID_1_"  style="overflow:visible;"/>
						</clipPath>
						<g style="clip-path:url(#SVGID_00000148622155058898168160000016112502689444606627_);">
							<g>
								<path style="opacity:0.25;fill:#FFFFFF;" d="M320.309,237.184c0,1.148-0.931,2.079-2.079,2.079
									c-1.148,0-2.079-0.931-2.079-2.079c0-1.148,0.931-2.079,2.079-2.079C319.378,235.105,320.309,236.036,320.309,237.184z"/>
								<path style="opacity:0.25;fill:#FFFFFF;" d="M332.616,237.184c0,1.148-0.931,2.079-2.079,2.079s-2.079-0.931-2.079-2.079
									c0-1.148,0.931-2.079,2.079-2.079S332.616,236.036,332.616,237.184z"/>
								<path style="opacity:0.25;fill:#FFFFFF;" d="M344.922,237.184c0,1.148-0.931,2.079-2.079,2.079
									c-1.148,0-2.079-0.931-2.079-2.079c0-1.148,0.931-2.079,2.079-2.079C343.991,235.105,344.922,236.036,344.922,237.184z"/>
								<path style="opacity:0.25;fill:#FFFFFF;" d="M357.228,237.184c0,1.148-0.931,2.079-2.079,2.079
									c-1.148,0-2.079-0.931-2.079-2.079c0-1.148,0.931-2.079,2.079-2.079C356.298,235.105,357.228,236.036,357.228,237.184z"/>
								<path style="opacity:0.25;fill:#FFFFFF;" d="M369.535,237.184c0,1.148-0.931,2.079-2.079,2.079s-2.079-0.931-2.079-2.079
									c0-1.148,0.931-2.079,2.079-2.079S369.535,236.036,369.535,237.184z"/>
								<path style="opacity:0.25;fill:#FFFFFF;" d="M381.841,237.184c0,1.148-0.931,2.079-2.079,2.079
									c-1.148,0-2.079-0.931-2.079-2.079c0-1.148,0.931-2.079,2.079-2.079C380.911,235.105,381.841,236.036,381.841,237.184z"/>
								<path style="opacity:0.25;fill:#FFFFFF;" d="M394.148,237.184c0,1.148-0.931,2.079-2.079,2.079
									c-1.148,0-2.079-0.931-2.079-2.079c0-1.148,0.931-2.079,2.079-2.079C393.217,235.105,394.148,236.036,394.148,237.184z"/>
								<path style="opacity:0.25;fill:#FFFFFF;" d="M406.454,237.184c0,1.148-0.931,2.079-2.079,2.079s-2.079-0.931-2.079-2.079
									c0-1.148,0.931-2.079,2.079-2.079S406.454,236.036,406.454,237.184z"/>
							</g>
							<g>
								<path style="opacity:0.25;fill:#FFFFFF;" d="M320.309,225.701c0,1.148-0.931,2.079-2.079,2.079
									c-1.148,0-2.079-0.931-2.079-2.079c0-1.148,0.931-2.079,2.079-2.079C319.378,223.622,320.309,224.553,320.309,225.701z"/>
								<path style="opacity:0.25;fill:#FFFFFF;" d="M332.616,225.701c0,1.148-0.931,2.079-2.079,2.079s-2.079-0.931-2.079-2.079
									c0-1.148,0.931-2.079,2.079-2.079S332.616,224.553,332.616,225.701z"/>
								<path style="opacity:0.25;fill:#FFFFFF;" d="M344.922,225.701c0,1.148-0.931,2.079-2.079,2.079
									c-1.148,0-2.079-0.931-2.079-2.079c0-1.148,0.931-2.079,2.079-2.079C343.991,223.622,344.922,224.553,344.922,225.701z"/>
								<path style="opacity:0.25;fill:#FFFFFF;" d="M357.228,225.701c0,1.148-0.931,2.079-2.079,2.079
									c-1.148,0-2.079-0.931-2.079-2.079c0-1.148,0.931-2.079,2.079-2.079C356.298,223.622,357.228,224.553,357.228,225.701z"/>
								<path style="opacity:0.25;fill:#FFFFFF;" d="M369.535,225.701c0,1.148-0.931,2.079-2.079,2.079s-2.079-0.931-2.079-2.079
									c0-1.148,0.931-2.079,2.079-2.079S369.535,224.553,369.535,225.701z"/>
								<path style="opacity:0.25;fill:#FFFFFF;" d="M381.841,225.701c0,1.148-0.931,2.079-2.079,2.079
									c-1.148,0-2.079-0.931-2.079-2.079c0-1.148,0.931-2.079,2.079-2.079C380.911,223.622,381.841,224.553,381.841,225.701z"/>
								<path style="opacity:0.25;fill:#FFFFFF;" d="M394.148,225.701c0,1.148-0.931,2.079-2.079,2.079
									c-1.148,0-2.079-0.931-2.079-2.079c0-1.148,0.931-2.079,2.079-2.079C393.217,223.622,394.148,224.553,394.148,225.701z"/>
								<path style="opacity:0.25;fill:#FFFFFF;" d="M406.454,225.701c0,1.148-0.931,2.079-2.079,2.079s-2.079-0.931-2.079-2.079
									c0-1.148,0.931-2.079,2.079-2.079S406.454,224.553,406.454,225.701z"/>
							</g>
							<g>
								<circle style="opacity:0.25;fill:#FFFFFF;" cx="318.23" cy="214.218" r="2.079"/>
								<path style="opacity:0.25;fill:#FFFFFF;" d="M332.616,214.218c0,1.148-0.931,2.079-2.079,2.079s-2.079-0.931-2.079-2.079
									c0-1.148,0.931-2.079,2.079-2.079S332.616,213.07,332.616,214.218z"/>
								<path style="opacity:0.25;fill:#FFFFFF;" d="M344.922,214.218c0,1.148-0.931,2.079-2.079,2.079
									c-1.148,0-2.079-0.931-2.079-2.079c0-1.148,0.931-2.079,2.079-2.079C343.991,212.139,344.922,213.07,344.922,214.218z"/>
								<path style="opacity:0.25;fill:#FFFFFF;" d="M357.228,214.218c0,1.148-0.931,2.079-2.079,2.079
									c-1.148,0-2.079-0.931-2.079-2.079c0-1.148,0.931-2.079,2.079-2.079C356.298,212.139,357.228,213.07,357.228,214.218z"/>
								<path style="opacity:0.25;fill:#FFFFFF;" d="M369.535,214.218c0,1.148-0.931,2.079-2.079,2.079s-2.079-0.931-2.079-2.079
									c0-1.148,0.931-2.079,2.079-2.079S369.535,213.07,369.535,214.218z"/>
								<circle style="opacity:0.25;fill:#FFFFFF;" cx="379.763" cy="214.218" r="2.079"/>
								<circle style="opacity:0.25;fill:#FFFFFF;" cx="392.069" cy="214.218" r="2.079"/>
								<circle style="opacity:0.25;fill:#FFFFFF;" cx="404.376" cy="214.218" r="2.079"/>
							</g>
							<g>
								<circle style="opacity:0.25;fill:#FFFFFF;" cx="318.23" cy="202.735" r="2.079"/>
								<path style="opacity:0.25;fill:#FFFFFF;" d="M332.616,202.735c0,1.148-0.931,2.079-2.079,2.079s-2.079-0.931-2.079-2.079
									c0-1.148,0.931-2.079,2.079-2.079S332.616,201.587,332.616,202.735z"/>
								<path style="opacity:0.25;fill:#FFFFFF;" d="M344.922,202.735c0,1.148-0.931,2.079-2.079,2.079
									c-1.148,0-2.079-0.931-2.079-2.079c0-1.148,0.931-2.079,2.079-2.079C343.991,200.656,344.922,201.587,344.922,202.735z"/>
								<path style="opacity:0.25;fill:#FFFFFF;" d="M357.228,202.735c0,1.148-0.931,2.079-2.079,2.079
									c-1.148,0-2.079-0.931-2.079-2.079c0-1.148,0.931-2.079,2.079-2.079C356.298,200.656,357.228,201.587,357.228,202.735z"/>
								<path style="opacity:0.25;fill:#FFFFFF;" d="M369.535,202.735c0,1.148-0.931,2.079-2.079,2.079s-2.079-0.931-2.079-2.079
									c0-1.148,0.931-2.079,2.079-2.079S369.535,201.587,369.535,202.735z"/>
								<circle style="opacity:0.25;fill:#FFFFFF;" cx="379.763" cy="202.735" r="2.079"/>
								<circle style="opacity:0.25;fill:#FFFFFF;" cx="392.069" cy="202.735" r="2.079"/>
								<circle style="opacity:0.25;fill:#FFFFFF;" cx="404.376" cy="202.735" r="2.079"/>
							</g>
							<g>
								<path style="opacity:0.25;fill:#FFFFFF;" d="M320.309,191.252c0,1.148-0.931,2.079-2.079,2.079
									c-1.148,0-2.079-0.931-2.079-2.079c0-1.148,0.931-2.079,2.079-2.079C319.378,189.173,320.309,190.104,320.309,191.252z"/>
								<path style="opacity:0.25;fill:#FFFFFF;" d="M332.616,191.252c0,1.148-0.931,2.079-2.079,2.079s-2.079-0.931-2.079-2.079
									c0-1.148,0.931-2.079,2.079-2.079S332.616,190.104,332.616,191.252z"/>
								<path style="opacity:0.25;fill:#FFFFFF;" d="M344.922,191.252c0,1.148-0.931,2.079-2.079,2.079
									c-1.148,0-2.079-0.931-2.079-2.079c0-1.148,0.931-2.079,2.079-2.079C343.991,189.173,344.922,190.104,344.922,191.252z"/>
								<path style="opacity:0.25;fill:#FFFFFF;" d="M357.228,191.252c0,1.148-0.931,2.079-2.079,2.079
									c-1.148,0-2.079-0.931-2.079-2.079c0-1.148,0.931-2.079,2.079-2.079C356.298,189.173,357.228,190.104,357.228,191.252z"/>
								<path style="opacity:0.25;fill:#FFFFFF;" d="M369.535,191.252c0,1.148-0.931,2.079-2.079,2.079s-2.079-0.931-2.079-2.079
									c0-1.148,0.931-2.079,2.079-2.079S369.535,190.104,369.535,191.252z"/>
								<path style="opacity:0.25;fill:#FFFFFF;" d="M381.841,191.252c0,1.148-0.931,2.079-2.079,2.079
									c-1.148,0-2.079-0.931-2.079-2.079c0-1.148,0.931-2.079,2.079-2.079C380.911,189.173,381.841,190.104,381.841,191.252z"/>
								<path style="opacity:0.25;fill:#FFFFFF;" d="M394.148,191.252c0,1.148-0.931,2.079-2.079,2.079
									c-1.148,0-2.079-0.931-2.079-2.079c0-1.148,0.931-2.079,2.079-2.079C393.217,189.173,394.148,190.104,394.148,191.252z"/>
								<path style="opacity:0.25;fill:#FFFFFF;" d="M406.454,191.252c0,1.148-0.931,2.079-2.079,2.079s-2.079-0.931-2.079-2.079
									c0-1.148,0.931-2.079,2.079-2.079S406.454,190.104,406.454,191.252z"/>
							</g>
							<g>
								<path style="opacity:0.25;fill:#FFFFFF;" d="M320.309,179.769c0,1.148-0.931,2.079-2.079,2.079
									c-1.148,0-2.079-0.931-2.079-2.079s0.931-2.079,2.079-2.079C319.378,177.69,320.309,178.621,320.309,179.769z"/>
								<path style="opacity:0.25;fill:#FFFFFF;" d="M332.616,179.769c0,1.148-0.931,2.079-2.079,2.079s-2.079-0.931-2.079-2.079
									s0.931-2.079,2.079-2.079S332.616,178.621,332.616,179.769z"/>
								<path style="opacity:0.25;fill:#FFFFFF;" d="M344.922,179.769c0,1.148-0.931,2.079-2.079,2.079
									c-1.148,0-2.079-0.931-2.079-2.079s0.931-2.079,2.079-2.079C343.991,177.69,344.922,178.621,344.922,179.769z"/>
								<path style="opacity:0.25;fill:#FFFFFF;" d="M357.228,179.769c0,1.148-0.931,2.079-2.079,2.079
									c-1.148,0-2.079-0.931-2.079-2.079s0.931-2.079,2.079-2.079C356.298,177.69,357.228,178.621,357.228,179.769z"/>
								<path style="opacity:0.25;fill:#FFFFFF;" d="M369.535,179.769c0,1.148-0.931,2.079-2.079,2.079s-2.079-0.931-2.079-2.079
									s0.931-2.079,2.079-2.079S369.535,178.621,369.535,179.769z"/>
								<path style="opacity:0.25;fill:#FFFFFF;" d="M381.841,179.769c0,1.148-0.931,2.079-2.079,2.079
									c-1.148,0-2.079-0.931-2.079-2.079s0.931-2.079,2.079-2.079C380.911,177.69,381.841,178.621,381.841,179.769z"/>
								<path style="opacity:0.25;fill:#FFFFFF;" d="M394.148,179.769c0,1.148-0.931,2.079-2.079,2.079
									c-1.148,0-2.079-0.931-2.079-2.079s0.931-2.079,2.079-2.079C393.217,177.69,394.148,178.621,394.148,179.769z"/>
								<path style="opacity:0.25;fill:#FFFFFF;" d="M406.454,179.769c0,1.148-0.931,2.079-2.079,2.079s-2.079-0.931-2.079-2.079
									s0.931-2.079,2.079-2.079S406.454,178.621,406.454,179.769z"/>
							</g>
							<g>
								<circle style="opacity:0.25;fill:#FFFFFF;" cx="318.23" cy="168.286" r="2.079"/>
								<path style="opacity:0.25;fill:#FFFFFF;" d="M332.616,168.286c0,1.148-0.931,2.079-2.079,2.079s-2.079-0.931-2.079-2.079
									c0-1.148,0.931-2.079,2.079-2.079S332.616,167.138,332.616,168.286z"/>
								<path style="opacity:0.25;fill:#FFFFFF;" d="M344.922,168.286c0,1.148-0.931,2.079-2.079,2.079
									c-1.148,0-2.079-0.931-2.079-2.079c0-1.148,0.931-2.079,2.079-2.079C343.991,166.207,344.922,167.138,344.922,168.286z"/>
								<path style="opacity:0.25;fill:#FFFFFF;" d="M357.228,168.286c0,1.148-0.931,2.079-2.079,2.079
									c-1.148,0-2.079-0.931-2.079-2.079c0-1.148,0.931-2.079,2.079-2.079C356.298,166.207,357.228,167.138,357.228,168.286z"/>
								<path style="opacity:0.25;fill:#FFFFFF;" d="M369.535,168.286c0,1.148-0.931,2.079-2.079,2.079s-2.079-0.931-2.079-2.079
									c0-1.148,0.931-2.079,2.079-2.079S369.535,167.138,369.535,168.286z"/>
								<circle style="opacity:0.25;fill:#FFFFFF;" cx="379.763" cy="168.286" r="2.079"/>
								<circle style="opacity:0.25;fill:#FFFFFF;" cx="392.069" cy="168.286" r="2.079"/>
								<circle style="opacity:0.25;fill:#FFFFFF;" cx="404.376" cy="168.286" r="2.079"/>
							</g>
							<g>
								<circle style="opacity:0.25;fill:#FFFFFF;" cx="318.23" cy="156.803" r="2.079"/>
								<path style="opacity:0.25;fill:#FFFFFF;" d="M332.616,156.803c0,1.148-0.931,2.079-2.079,2.079s-2.079-0.931-2.079-2.079
									c0-1.148,0.931-2.079,2.079-2.079S332.616,155.655,332.616,156.803z"/>
								<path style="opacity:0.25;fill:#FFFFFF;" d="M344.922,156.803c0,1.148-0.931,2.079-2.079,2.079
									c-1.148,0-2.079-0.931-2.079-2.079c0-1.148,0.931-2.079,2.079-2.079C343.991,154.724,344.922,155.655,344.922,156.803z"/>
								<path style="opacity:0.25;fill:#FFFFFF;" d="M357.228,156.803c0,1.148-0.931,2.079-2.079,2.079
									c-1.148,0-2.079-0.931-2.079-2.079c0-1.148,0.931-2.079,2.079-2.079C356.298,154.724,357.228,155.655,357.228,156.803z"/>
								<path style="opacity:0.25;fill:#FFFFFF;" d="M369.535,156.803c0,1.148-0.931,2.079-2.079,2.079s-2.079-0.931-2.079-2.079
									c0-1.148,0.931-2.079,2.079-2.079S369.535,155.655,369.535,156.803z"/>
								<circle style="opacity:0.25;fill:#FFFFFF;" cx="379.763" cy="156.803" r="2.079"/>
								<circle style="opacity:0.25;fill:#FFFFFF;" cx="392.069" cy="156.803" r="2.079"/>
								<circle style="opacity:0.25;fill:#FFFFFF;" cx="404.376" cy="156.803" r="2.079"/>
							</g>
							<g>
								<path style="opacity:0.25;fill:#FFFFFF;" d="M320.309,145.32c0,1.148-0.931,2.079-2.079,2.079
									c-1.148,0-2.079-0.931-2.079-2.079c0-1.148,0.931-2.079,2.079-2.079C319.378,143.241,320.309,144.172,320.309,145.32z"/>
								<path style="opacity:0.25;fill:#FFFFFF;" d="M332.616,145.32c0,1.148-0.931,2.079-2.079,2.079s-2.079-0.931-2.079-2.079
									c0-1.148,0.931-2.079,2.079-2.079S332.616,144.172,332.616,145.32z"/>
								<path style="opacity:0.25;fill:#FFFFFF;" d="M344.922,145.32c0,1.148-0.931,2.079-2.079,2.079
									c-1.148,0-2.079-0.931-2.079-2.079c0-1.148,0.931-2.079,2.079-2.079C343.991,143.241,344.922,144.172,344.922,145.32z"/>
								<path style="opacity:0.25;fill:#FFFFFF;" d="M357.228,145.32c0,1.148-0.931,2.079-2.079,2.079
									c-1.148,0-2.079-0.931-2.079-2.079c0-1.148,0.931-2.079,2.079-2.079C356.298,143.241,357.228,144.172,357.228,145.32z"/>
								<path style="opacity:0.25;fill:#FFFFFF;" d="M369.535,145.32c0,1.148-0.931,2.079-2.079,2.079s-2.079-0.931-2.079-2.079
									c0-1.148,0.931-2.079,2.079-2.079S369.535,144.172,369.535,145.32z"/>
								<path style="opacity:0.25;fill:#FFFFFF;" d="M381.841,145.32c0,1.148-0.931,2.079-2.079,2.079
									c-1.148,0-2.079-0.931-2.079-2.079c0-1.148,0.931-2.079,2.079-2.079C380.911,143.241,381.841,144.172,381.841,145.32z"/>
								<path style="opacity:0.25;fill:#FFFFFF;" d="M394.148,145.32c0,1.148-0.931,2.079-2.079,2.079
									c-1.148,0-2.079-0.931-2.079-2.079c0-1.148,0.931-2.079,2.079-2.079C393.217,143.241,394.148,144.172,394.148,145.32z"/>
								<path style="opacity:0.25;fill:#FFFFFF;" d="M406.454,145.32c0,1.148-0.931,2.079-2.079,2.079s-2.079-0.931-2.079-2.079
									c0-1.148,0.931-2.079,2.079-2.079S406.454,144.172,406.454,145.32z"/>
							</g>
						</g>
					</g>
					<path style="fill:#2A3551;" d="M370.558,191.996l12.262-27.06c0.472-1.041,1.382-1.818,2.484-2.121l49.862-13.678
						c0.844-0.232,2.566,1.852,2.181,2.637l-18.144,33.681c-0.582,1.184-1.591,2.102-2.825,2.57l-46.895,17.779L370.558,191.996z"/>
					<path style="fill:#364380;" d="M371.452,193.995l12.262-27.06c0.472-1.041,1.382-1.818,2.484-2.121l49.862-13.678
						c0.844-0.232,1.566,0.641,1.18,1.427l-17.143,34.891c-0.582,1.184-1.591,2.103-2.825,2.57l-46.895,17.779L371.452,193.995z"/>
					<path style="fill:#F0C9CF;" d="M383.563,200.368c0,0,1.008,2.353-3.95,6.912c-4.969,4.559-12.48,1.607-12.48,1.607
						l-19.928,15.117c-2.815,2.111-6.187,3.193-9.57,3.193c-2.521,0-5.042-0.588-7.364-1.796c-4.265-2.217-7.301-6.24-8.267-10.946
						l-0.137-0.683l-1.303-6.324l10.61-6.219l8.467-4.969l0.284,1.576l1.324,7.301l21.661-10.599c0,0,4.359-6.975,6.439-9.454
						c2.08-2.479,4.423-2.878,5.158-1.271c0.746,1.607-3.95,8.183-3.95,8.183s1.744-0.137,6.975-1.954
						c5.231-1.807,8.645-5.557,10.053-4.423c1.408,1.145,0.609,4.423-1.271,6.975C386.788,197.091,383.563,200.368,383.563,200.368z
						"/>
					<polygon style="fill:#D683A7;" points="339.926,197.836 321.868,213.772 320.565,207.448 331.175,201.23 339.642,196.261 					
						"/>
					<path style="fill:#FFFFFF;" d="M366.934,145.879c-0.83,4.696-3.477,9.444-10.589,10.211c-5.62,0.62-9.538-1.082-12.238-3.404
						c-1.219-1.061-2.196-2.248-2.952-3.404c-0.714-1.072-1.25-2.122-1.639-3.036l3.477-1.597l2.49,0.672h17.627l2.195,0.294
						C365.852,145.69,366.398,145.774,366.934,145.879z"/>
					<path style="fill:#F0C9CF;" d="M356.88,152.896c-9.864,1.103-13.887-8.246-13.887-8.246l2.017-0.872
						c0,0,0.336-7.847-0.399-12.406l2.815,0.725l13.877,3.572c-1.282,3.004-0.945,7.206-0.788,8.551
						c0.032,0.273,0.052,0.431,0.052,0.431l2.542,0.672C363.11,145.322,363.52,152.161,356.88,152.896z"/>
					<path style="fill:#D683A7;" d="M360.515,144.219c-5.557,0.126-12.616-1.807-14.78-9.066c-0.494-1.649,0.242-2.595,1.691-3.057
						l13.877,3.572C360.021,138.673,360.358,142.875,360.515,144.219z"/>
					<path style="fill:#1F2251;" d="M342.26,126.413l-5.047-6.203c-2.609-3.207-2.339-7.876,0.623-10.761l0,0l0,0
						c-2.725-6.531,1.126-13.937,8.038-15.457l5.154-1.134c0.917-0.202,1.783-0.592,2.541-1.146l4.948-3.614
						c1.197-0.874,2.805-0.934,4.064-0.152l0,0c1.621,1.008,2.187,3.098,1.295,4.786l-1.516,2.87
						c-0.181,0.342,0.207,0.702,0.535,0.498l8.952-5.589c1.154-0.72,2.658-0.509,3.569,0.501l0,0
						c0.882,0.978,0.965,2.437,0.201,3.509l-6.174,8.654c-0.215,0.301,0.086,0.7,0.434,0.576l1.513-0.536
						c1.547-0.548,3.266,0.059,4.125,1.458l0,0c0.822,1.338,0.649,3.054-0.426,4.198c-2.951,3.14-8.494,9.416-9.227,12.984
						C364.857,126.748,342.26,126.413,342.26,126.413z"/>
					<path style="fill:#F0C9CF;" d="M366.587,116.728c-0.168,0.956-0.326,2.406-0.326,4.517c0,1.387,0.273,3.687,0.305,6.198
						c0.021,1.754-0.074,3.624-0.452,5.379c-0.882,4.076-3.309,7.542-9.433,7.542c-12.543,0-13.814-12.406-13.814-12.406
						s-0.336,2.983-3.152,1.576c-2.101-1.051-2.815-5.841-0.441-6.975c1.397-0.672,2.889,0.242,3.887,1.103
						c0.42,0.357,1.061,0.021,1.008-0.525l-0.504-5.851c3.424,1.04,15.694-2.448,20.516-7.206c0.084,1.282,0.966,2.742,1.723,3.761
						C366.513,114.669,366.766,115.709,366.587,116.728z"/>
					<g>
						<path style="fill:none;stroke:#C85E8B;stroke-width:0.5252;stroke-linecap:round;stroke-miterlimit:9;" d="M357.732,130.383
							l1.118-0.657c0.751-0.442,1.056-1.374,0.71-2.174l-1.828-4.232"/>
						<path d="M353.698,125.321c0,0.555-0.357,1.006-0.797,1.006c-0.441,0-0.798-0.45-0.798-1.006c0-0.556,0.357-1.006,0.798-1.006
							C353.341,124.315,353.698,124.765,353.698,125.321z"/>
						<path d="M363.287,124.751c0,0.555-0.357,1.006-0.798,1.006c-0.44,0-0.798-0.45-0.798-1.006c0-0.556,0.357-1.006,0.798-1.006
							C362.93,123.745,363.287,124.195,363.287,124.751z"/>
						
							<path style="fill:none;stroke:#1F2251;stroke-width:0.7879;stroke-linecap:round;stroke-linejoin:round;stroke-miterlimit:10;" d="
							M348.993,121.96c0,0,1.661-2.511,4.977-1.401"/>
						
							<path style="fill:none;stroke:#1F2251;stroke-width:0.7879;stroke-linecap:round;stroke-linejoin:round;stroke-miterlimit:10;" d="
							M364.991,120.693c0,0-1.982-2.189-5.167-0.182"/>
					</g>
					<path style="fill:#FFFFFF;" d="M353.97,132.806l4.747,0.223c0,0-0.163,2.459-2.554,2.302
						C353.771,135.175,353.97,132.806,353.97,132.806z"/>
					<path style="fill:none;stroke:#C85E8B;stroke-width:0.5252;stroke-linecap:round;stroke-miterlimit:9;" d="M339.042,124.905
						c1.408-0.872,2.682,0.235,2.414,2.347"/>
					<g>
						<path style="fill:#EAB7C0;" d="M353.26,130.068c0,1.555-1.261,2.816-2.816,2.816c-1.555,0-2.816-1.261-2.816-2.816
							c0-1.555,1.261-2.816,2.816-2.816C351.999,127.251,353.26,128.512,353.26,130.068z"/>
						<path style="fill:#EAB7C0;" d="M366.566,127.443c0.021,1.754-0.074,3.624-0.452,5.379c-0.179,0.042-0.368,0.063-0.557,0.063
							c-1.555,0-2.815-1.261-2.815-2.815c0-1.555,1.261-2.815,2.815-2.815C365.915,127.254,366.251,127.317,366.566,127.443z"/>
					</g>
					
						<line style="fill:none;stroke:#C85E8B;stroke-width:0.5252;stroke-linecap:round;stroke-miterlimit:9;" x1="341.254" y1="205.133" x2="333.275" y2="209.156"/>
					<path style="fill:none;stroke:#C85E8B;stroke-width:0.5252;stroke-linecap:round;stroke-miterlimit:9;" d="M386.314,192.594
						c-1.743,3.487-11.354,4.837-11.354,4.837"/>
					<path style="fill:none;stroke:#C85E8B;stroke-width:0.5252;stroke-linecap:round;stroke-miterlimit:9;" d="M383.564,200.372
						c-3.889,4.157-10.326,3.152-10.326,3.152"/>
					
						<line style="fill:none;stroke:#1F2251;stroke-width:0.5252;stroke-linecap:round;stroke-linejoin:round;stroke-miterlimit:10;" x1="339.641" y1="196.263" x2="336.315" y2="172.11"/>
					
						<line style="fill:none;stroke:#1F2251;stroke-width:0.5252;stroke-linecap:round;stroke-linejoin:round;stroke-miterlimit:10;" x1="380.637" y1="215.459" x2="356.341" y2="235.943"/>
					<g>
						<path style="fill:#647BF4;" d="M335.417,403.257l-22.683-2.928c-1.54-0.199-2.627-1.608-2.428-3.148l0.465-3.601
							c0.199-1.54,1.608-2.627,3.148-2.428l22.683,2.928c1.54,0.199,2.627,1.608,2.428,3.148l-0.465,3.601
							C338.367,402.369,336.957,403.456,335.417,403.257z"/>
						
							<line style="fill:none;stroke:#1F2251;stroke-width:0.5252;stroke-linecap:round;stroke-linejoin:round;stroke-miterlimit:10;" x1="313.475" y1="391.137" x2="337.044" y2="394.18"/>
					</g>
					<g>
						<path style="fill:#647BF4;" d="M428.849,398.523l-21.955,6.409c-1.49,0.435-3.051-0.421-3.486-1.911l-1.017-3.485
							c-0.435-1.491,0.421-3.051,1.911-3.487l21.955-6.409c1.49-0.435,3.051,0.42,3.486,1.911l1.017,3.485
							C431.195,396.527,430.339,398.088,428.849,398.523z"/>
						
							<line style="fill:none;stroke:#1F2251;stroke-width:0.5252;stroke-linecap:round;stroke-linejoin:round;stroke-miterlimit:10;" x1="403.888" y1="396.215" x2="426.701" y2="389.556"/>
					</g>
					<g>
						<path style="opacity:0.25;fill:#FFFFFF;" d="M386.503,168.876c1.33-0.983,3.011-0.964,3.755,0.042s0.269,2.619-1.061,3.602
							c-1.33,0.983-3.011,0.964-3.755-0.042C384.699,171.471,385.174,169.859,386.503,168.876z"/>
						<path style="opacity:0.25;fill:#FFFFFF;" d="M387.159,169.762c0.683-0.505,1.546-0.495,1.928,0.022
							c0.382,0.517,0.138,1.345-0.545,1.85c-0.683,0.505-1.546,0.495-1.928-0.022C386.232,171.095,386.476,170.267,387.159,169.762z
							"/>
					</g>
					
						<line style="fill:none;stroke:#1F2251;stroke-width:0.5252;stroke-linecap:round;stroke-linejoin:round;stroke-miterlimit:10;" x1="368.489" y1="263.135" x2="362.152" y2="292.497"/>
				</g>
				<path style="fill:#364380;" d="M453.893,182.898h-0.662C453.462,182.835,453.683,182.846,453.893,182.898z"/>
				<path style="fill:#364380;" d="M453.231,182.898c-0.01,0-0.031,0-0.042,0.01v-0.01H453.231z"/>
				<g>
					<g>
						<polyline style="fill:#F0C9CF;" points="503.094,368.856 501.485,414.94 506.313,423.255 517.98,418.695 521.064,373.013 
													"/>
						<path style="fill:#EBAF65;" d="M476.571,426.596l25.45-14.74l4.828,6.839h11.131l1.207,10.326h-41.964
							C475.894,429.021,475.421,427.262,476.571,426.596z"/>
					</g>
					<g>
						<polyline style="fill:#F0C9CF;" points="580.922,368.856 595.583,414.94 590.755,423.255 579.088,418.695 562.952,373.013 
													"/>
						<path style="fill:#EBAF65;" d="M620.497,426.596l-25.45-14.74l-4.828,6.839h-11.131l-1.207,10.326h41.964
							C621.174,429.021,621.647,427.262,620.497,426.596z"/>
					</g>
					<path style="fill:#292F69;" d="M504.527,217.202l-6.035,173.935l23.871,1.748l9.119-108.764l35.94,112.094l21.189-6.659
						c0,0-28.698-118.309-31.917-135.206c-3.219-16.897-1.609-25.753-6.705-37.552L504.527,217.202z"/>
					<path style="fill:#1F2251;" d="M523.61,100.397c-6.88-1.877-12.11,8.18-10.501,20.652c1.609,12.472-9.119,24.407-7.912,29.503
						c1.207,5.096,25.078,12.204,41.036,12.07c15.958-0.134,20.92-7.108,17.97-12.07c-2.95-4.962-7.644-9.793-7.242-24.744
						S546.985,82.963,523.61,100.397z"/>
					<path style="fill:#F0C9CF;" d="M490.714,171.607l-8.851,19.848l-13.679-32.088c0,0-1.743-10.959-3.151-14.044
						c-1.408-3.085-0.939-7.175-2.816-7.778c-1.878-0.604-2.548,2.749-2.548,5.632c0,2.883-0.469,5.634-0.469,5.634
						s-7.845-6.841-8.314-8.986c-0.469-2.146-0.201-9.454-1.944-10.393c-1.743-0.939-3.688,1.207-4.09,7.443
						c-0.402,6.236,12.137,24.407,12.137,24.407l9.186,44.523l25.748,4.694l15.288-25.078L490.714,171.607z"/>
					<path style="fill:#647BF4;" d="M569.573,177.457l-9.475,6.881l-0.893,0.641l-7.07,5.137l-1.071,28.027l-4.318-0.084
						l-0.893-0.021l-12.459-0.252l-0.893-0.011l-12.459-0.252l-0.893-0.021l-12.459-0.252l-0.893-0.021l-1.271-0.021
						c0,0,0.536-6.849-1.471-16.839c-2.017-9.99,0.798-16.86,0.798-16.86l-13.142-11.902l6.734-10.463
						c2.059-3.204,4.958-5.767,8.351-7.406c0.294-0.147,0.588-0.284,0.893-0.41c0.977-0.431,1.996-0.777,3.036-1.04l9.423-2.416
						l0.515-0.137l0.378-0.094l3.194-0.83l9.265,0.031h0.893l10.095,0.031l2.364,1.24l0.893,0.473l0.021,0.01l8.488,4.444
						c1.429,0.746,2.752,1.649,3.95,2.7c0.305,0.252,0.609,0.525,0.893,0.809c2.07,2.006,3.719,4.454,4.801,7.185L569.573,177.457z"
						/>
					<g>
						<path style="opacity:0.25;fill:#FFFFFF;" d="M506.691,153.327v63.922l-0.893-0.021v-63.492
							C506.092,153.59,506.386,153.453,506.691,153.327z"/>
						<polygon style="opacity:0.25;fill:#FFFFFF;" points="520.042,149.64 520.042,217.523 519.15,217.502 519.15,149.871 
							519.664,149.734 						"/>
						<polygon style="opacity:0.25;fill:#FFFFFF;" points="533.394,148.842 533.394,217.785 532.501,217.775 532.501,148.842 						
							"/>
						<polygon style="opacity:0.25;fill:#FFFFFF;" points="546.746,150.585 546.746,218.058 545.853,218.037 545.853,150.113 						
							"/>
						<path style="opacity:0.25;fill:#FFFFFF;" d="M560.098,158.548v25.789l-0.893,0.641v-27.239
							C559.509,157.991,559.814,158.264,560.098,158.548z"/>
					</g>
					<path style="fill:#FFFFFF;" d="M546.767,150.596c-2.768,5.652-10.074,8.95-19.035,8.362c-7.522-0.504-8.446-5.515-8.068-9.223
						l3.572-0.924l20.253,0.063L546.767,150.596z"/>
					<path style="fill:#F0C9CF;" d="M543.489,148.873c0,0-3.698,7.375-13.152,7.375s-7.101-7.438-7.101-7.438l2.679-0.872
						l-0.158-4.612l-0.242-6.723l16.094-4.895c-0.336,0.672-0.578,1.639-0.735,2.752c-0.746,5.084,0.063,13.478,0.063,13.478
						L543.489,148.873z"/>
					<path style="fill:#D683A7;" d="M541.609,131.708c-0.336,0.672-0.578,1.639-0.735,2.752c0,0.01-0.011,0.01-0.011,0.021
						c-4.517,9.087-12.123,9.192-15.106,8.845l-0.242-6.723L541.609,131.708z"/>
					<path style="fill:#F0C9CF;" d="M523.933,107.513c1.483,7.917,18.412,13.394,19.613,14.298c0.703,0.53,0.933,1.788,1.002,2.738
						c0.015,0.201,0.29,0.241,0.359,0.052c0.427-1.168,1.283-2.838,2.725-3.01c2.239-0.267,4.401,2.555,3.125,5.946
						c-1.276,3.391-6.393,1.595-6.393,1.595s-4.165,10.15-13.75,10.429c-9.584,0.279-11.699-7.843-10.972-12.828
						c0.727-4.985,0.655-7.465,0.234-10.404C519.453,113.39,523.127,111.315,523.933,107.513z"/>
					<path style="fill:none;stroke:#C85E8B;stroke-width:0.5252;stroke-linecap:round;stroke-miterlimit:9;" d="M548.38,123.541
						c-0.805,0.235-1.699,2.425-1.341,3.453"/>
					<g>
						<path style="fill:none;stroke:#C85E8B;stroke-width:0.5252;stroke-linecap:round;stroke-miterlimit:9;" d="M529.165,129.865
							l-1.117-0.657c-0.751-0.442-1.056-1.374-0.71-2.174l1.828-4.231"/>
						<path d="M533.199,124.802c0,0.555,0.357,1.006,0.797,1.006c0.44,0,0.798-0.45,0.798-1.006c0-0.556-0.357-1.006-0.798-1.006
							C533.556,123.796,533.199,124.247,533.199,124.802z"/>
						<path d="M523.61,124.232c0,0.555,0.357,1.006,0.797,1.006c0.44,0,0.798-0.45,0.798-1.006c0-0.555-0.357-1.006-0.798-1.006
							C523.967,123.227,523.61,123.677,523.61,124.232z"/>
						
							<path style="fill:none;stroke:#1F2251;stroke-width:0.7879;stroke-linecap:round;stroke-linejoin:round;stroke-miterlimit:10;" d="
							M537.381,119.373c0,0-2.019-2.233-5.131-0.637"/>
						
							<path style="fill:none;stroke:#1F2251;stroke-width:0.7879;stroke-linecap:round;stroke-linejoin:round;stroke-miterlimit:10;" d="
							M521.824,119.282c0,0,1.982-2.188,5.167-0.18"/>
					</g>
					<path style="fill:none;stroke:#647BF4;stroke-width:0.7879;stroke-miterlimit:10;" d="M527.07,124.491
						c0,2.261-1.833,4.094-4.094,4.094c-2.261,0-4.094-1.833-4.094-4.094s1.833-4.094,4.094-4.094
						C525.237,120.397,527.07,122.23,527.07,124.491z"/>
					<path style="fill:none;stroke:#647BF4;stroke-width:0.7879;stroke-miterlimit:10;" d="M538.426,124.491
						c0,2.261-1.833,4.094-4.094,4.094c-2.261,0-4.094-1.833-4.094-4.094s1.833-4.094,4.094-4.094
						C536.592,120.397,538.426,122.23,538.426,124.491z"/>
					<path style="fill:none;stroke:#647BF4;stroke-width:0.7879;stroke-miterlimit:10;" d="M526.955,123.541
						c0,0,1.732-1.666,3.397,0"/>
					<path style="fill:none;stroke:#C85E8B;stroke-width:0.5252;stroke-linecap:round;stroke-miterlimit:9;" d="M530.352,133.521
						c0,0,2.605,1.073,4.751-0.76"/>
					<path style="fill:#99A3CA;" d="M501.365,216.798h-39.729l-0.001-0.003c-0.656,0.016-1.259-0.384-1.449-1.048l-8.519-30.916
						c-0.21-0.777,0.242-1.576,1.019-1.786l0.494-0.137h0.01c0.011-0.01,0.032-0.01,0.042-0.01h39.74L501.365,216.798z"/>
					<path style="fill:#E6E9FC;" d="M477.689,201.372c0,1.703-1.381,3.084-3.084,3.084s-3.084-1.381-3.084-3.084
						c0-1.704,1.381-3.085,3.084-3.085S477.689,199.668,477.689,201.372z"/>
					<g>
						<path style="fill:#7988B8;" d="M501.366,216.8h31.535c0.797,0,1.443-0.646,1.443-1.443v-0.535
							c0-0.797-0.646-1.443-1.443-1.443h-31.535c-0.797,0-1.443,0.646-1.443,1.443v0.535
							C499.923,216.154,500.569,216.8,501.366,216.8z"/>
						<path style="fill:#7988B8;" d="M491.447,184.82l8.379,30.401c0.212,0.768,1.006,1.219,1.774,1.007l0.515-0.142
							c0.768-0.212,1.219-1.006,1.008-1.774l-8.379-30.401c-0.212-0.768-1.006-1.219-1.774-1.007l-0.515,0.142
							C491.687,183.257,491.236,184.052,491.447,184.82z"/>
					</g>
					<path style="fill:#F0C9CF;" d="M583.902,225.653c0,3.876-1.702,7.627-4.79,10.179c-4.538,3.74-10.999,4.013-15.841,0.683
						l-22.092-15.201c0,0-12.018,2.637-17.428,2.143c-5.41-0.494-11.177-3.351-11.219-4.465c-0.053-1.124,21.766-3.404,20.737-4.297
						c-1.03-0.893-10.768-0.977-10.904-3.078s2.322-2.815,6.387-3.088c4.076-0.273,9.255,1.786,9.255,1.786l22.113,3.068
						l-6.282-18.32l-1.702-4.948l17.438-12.658l1.135,3.677l12.606,40.633C583.713,223.048,583.902,224.361,583.902,225.653z"/>
					<polygon style="fill:#D683A7;" points="569.573,177.457 570.708,181.134 553.837,195.063 552.135,190.115 					"/>
					
						<line style="fill:none;stroke:#C85E8B;stroke-width:0.5252;stroke-linecap:round;stroke-miterlimit:9;" x1="560.114" y1="213.38" x2="569.568" y2="214.654"/>
					<path style="fill:#1F2251;" d="M507.729,215.09c0,0.287-0.233,0.52-0.52,0.52s-0.52-0.233-0.52-0.52
						c0-0.287,0.233-0.52,0.52-0.52S507.729,214.803,507.729,215.09z"/>
					<path style="fill:#1F2251;" d="M509.838,215.09c0,0.287-0.233,0.52-0.52,0.52c-0.287,0-0.52-0.233-0.52-0.52
						c0-0.287,0.233-0.52,0.52-0.52C509.605,214.57,509.838,214.803,509.838,215.09z"/>
					<g>
						<path style="fill:#99A3CA;" d="M521.636,399.199l-22.858-0.774c-1.552-0.053-2.767-1.353-2.715-2.905l0.123-3.628
							c0.052-1.552,1.353-2.767,2.905-2.715l22.858,0.774c1.552,0.052,2.767,1.353,2.715,2.905l-0.123,3.629
							C524.488,398.036,523.188,399.252,521.636,399.199z"/>
					</g>
					<g>
						<path style="fill:#99A3CA;" d="M590.346,394.035l-21.909,6.564c-1.487,0.446-3.054-0.399-3.5-1.886l-1.042-3.478
							c-0.446-1.487,0.399-3.054,1.886-3.5l21.909-6.564c1.487-0.446,3.054,0.399,3.5,1.886l1.042,3.478
							C592.678,392.023,591.834,393.59,590.346,394.035z"/>
					</g>
					
						<line style="fill:none;stroke:#1F2251;stroke-width:0.5252;stroke-linecap:round;stroke-linejoin:round;stroke-miterlimit:10;" x1="524.598" y1="261.412" x2="535.669" y2="297.178"/>
					
						<path style="fill:none;stroke:#1F2251;stroke-width:0.5252;stroke-linecap:round;stroke-linejoin:round;stroke-miterlimit:10;" d="
						M506.69,199.566c5.884,5.433,16.286,6.237,16.286,6.237"/>
					
						<line style="fill:none;stroke:#1F2251;stroke-width:0.5252;stroke-linecap:round;stroke-linejoin:round;stroke-miterlimit:10;" x1="552.135" y1="190.115" x2="544.625" y2="177.457"/>
					
						<path style="fill:none;stroke:#1F2251;stroke-width:0.5252;stroke-linecap:round;stroke-linejoin:round;stroke-miterlimit:10;" d="
						M503.857,183.507c3.219-6.402,3.872-14.717,3.872-14.717"/>
				</g>
			</g>
			
				<line style="fill:none;stroke:#97A2D4;stroke-width:2.101;stroke-linecap:round;stroke-linejoin:round;stroke-miterlimit:10;" x1="115.874" y1="429.021" x2="641.029" y2="429.021"/>
		</g>
	</g>
	<g>
		<g>
			<polygon style="fill:#FFFFFF;" points="492.43,87.4 492.43,129.614 481.816,119.013 441.156,119.013 441.156,87.4 			"/>
			<g>
				
					<line style="fill:none;stroke:#647BF4;stroke-linecap:round;stroke-linejoin:round;stroke-miterlimit:10;" x1="454.984" y1="95.957" x2="478.602" y2="95.957"/>
				
					<line style="opacity:0.25;fill:none;stroke:#647BF4;stroke-linecap:round;stroke-linejoin:round;stroke-miterlimit:10;" x1="458.894" y1="100.809" x2="478.602" y2="100.809"/>
				
					<line style="opacity:0.25;fill:none;stroke:#647BF4;stroke-linecap:round;stroke-linejoin:round;stroke-miterlimit:10;" x1="454.984" y1="105.66" x2="478.602" y2="105.66"/>
				
					<line style="opacity:0.25;fill:none;stroke:#647BF4;stroke-linecap:round;stroke-linejoin:round;stroke-miterlimit:10;" x1="462.043" y1="110.511" x2="478.602" y2="110.511"/>
			</g>
		</g>
		<g>
			<polygon style="fill:#FFFFFF;" points="255.348,111.927 255.348,154.141 265.962,143.54 306.622,143.54 306.622,111.927 			"/>
			<g>
				
					<line style="fill:none;stroke:#EBAF65;stroke-linecap:round;stroke-linejoin:round;stroke-miterlimit:10;" x1="292.794" y1="120.485" x2="269.177" y2="120.485"/>
				
					<line style="opacity:0.25;fill:none;stroke:#647BF4;stroke-linecap:round;stroke-linejoin:round;stroke-miterlimit:10;" x1="288.884" y1="125.336" x2="269.177" y2="125.336"/>
				
					<line style="opacity:0.25;fill:none;stroke:#647BF4;stroke-linecap:round;stroke-linejoin:round;stroke-miterlimit:10;" x1="292.794" y1="130.187" x2="269.177" y2="130.187"/>
				
					<line style="opacity:0.25;fill:none;stroke:#647BF4;stroke-linecap:round;stroke-linejoin:round;stroke-miterlimit:10;" x1="285.736" y1="135.038" x2="269.177" y2="135.038"/>
			</g>
		</g>
	</g>
</g>
</svg>
